<svg width="245" height="245" viewBox="0 0 245 245" fill="none" xmlns="http://www.w3.org/2000/svg">
<path d="M159.227 62.4734C174.386 28.2596 140.254 26.1805 134.955 40.4756C124.596 58.5561 128.984 66.3924 136.099 68.7881C134.343 75.6768 129.699 91.246 134.263 96.7857C139.969 103.71 143.762 107.013 147.528 97.9092C150.542 90.6264 153.014 75.5291 153.874 68.8908C156.104 69.5305 160.298 69.1424 159.227 62.4734Z" fill="#FFFAE2"/>
<path d="M144.977 69.6158C142.223 69.9077 138.977 69.7571 136.099 68.7881M134.955 40.4756C140.254 26.1805 174.386 28.2596 159.227 62.4734M134.955 40.4756C124.596 58.5561 128.984 66.3924 136.099 68.7881M134.955 40.4756C134.955 40.4756 154.428 51.5979 144.233 45.0334C134.038 38.4689 154.938 48.862 154.938 48.862L152.797 60.347C155.379 58.8628 158.15 60.1647 159.227 62.4734M159.227 62.4734C160.298 69.1424 156.104 69.5305 153.874 68.8908C153.014 75.5291 150.542 90.6264 147.528 97.9092C143.762 107.013 139.969 103.71 134.263 96.7857C129.699 91.246 134.343 75.6768 136.099 68.7881" stroke="#232540" stroke-width="2" stroke-linecap="round" stroke-linejoin="round"/>
<path d="M159.399 62.7173C174.921 30.8114 141.914 23.5211 134.598 40.4758L154.76 48.6796L152.44 61.0767C156.722 58.7066 159.252 61.8056 159.399 62.7173Z" fill="#232540"/>
<path d="M180.562 220.751L171.644 181.885H127.951L139.186 220.751H180.562Z" fill="#232540"/>
<path d="M101.408 220.751L109.106 179.041H143.118V198.66L135.534 213.641L128.081 220.751H101.408Z" fill="#232540"/>
<path d="M136.482 207.953L133.875 194.208" stroke="#00A886" stroke-width="2" stroke-linecap="round" stroke-linejoin="round"/>
<path d="M57.7548 93.2647C54.7678 89.3437 48.1863 81.1588 46.5816 76.3672C46.5816 76.3672 41.5332 65.3046 42.7183 63.8233C43.8805 62.3706 46.8157 69.3869 49.0184 72.4103C46.2556 68.5928 43.6026 58.5172 44.8181 57.9859C46.8867 57.0818 51.4798 67.8296 53.6446 71.5634C51.4567 67.6945 46.2149 56.5485 48.1854 53.9246C49.0683 52.7489 54.9973 63.7498 57.0056 68.8576C55.8105 65.7025 54.011 57.8071 54.011 56.1733C54.011 50.8316 61.144 64.9846 62.9945 70.8627L69.1861 90.805L57.7548 93.2647Z" fill="#FFFAE2"/>
<path d="M57.7548 93.2647C54.7678 89.3437 48.1863 81.1588 46.5816 76.3672C46.5816 76.3672 41.5332 65.3046 42.7183 63.8233C43.9035 62.3419 46.9324 69.6674 49.1481 72.5847C46.3396 68.9103 43.5836 58.5255 44.8181 57.9859C46.8867 57.0818 51.4798 67.8296 53.6446 71.5634C51.4567 67.6945 46.2149 56.5485 48.1854 53.9246C49.0813 52.7316 55.1732 64.0767 57.0919 69.0795C55.8993 66.0908 54.011 57.8469 54.011 56.1733C54.011 50.8316 61.144 64.9846 62.9945 70.8627L69.1861 90.805L57.7548 93.2647Z" stroke="#232540" stroke-width="2" stroke-linecap="round" stroke-linejoin="round"/>
<path d="M68.7231 75.6887C69.0246 79.1109 71.1752 85.7191 72.6494 88.6018L66.266 85.6914L59.8826 82.781C57.8112 80.612 61.748 76.9366 63.402 75.1376C64.4817 67.5945 64.4066 63.9865 66.1953 63.7765C68.9199 63.4565 68.2883 70.7524 68.7231 75.6887Z" fill="#FFFAE2"/>
<path d="M72.6494 88.6017C71.1752 85.7189 69.0246 79.1107 68.7232 75.6885C68.2884 70.7523 68.9199 63.4563 66.1953 63.7763C64.4067 63.9864 64.4817 67.5943 63.402 75.1375C61.3537 75.1469 59.7125 80.1689 61.7839 82.3379" stroke="#232540" stroke-width="2" stroke-linecap="round" stroke-linejoin="round"/>
<path d="M91.0654 116.145C104.581 77.5671 127.623 74.1574 137.455 77.2748H151.2C178.404 80.7818 212.194 129.296 208.758 145.662C206.009 158.755 183.587 163.137 173.851 163.721L176.113 185.701L97.6516 189.792L104.524 135.433C102.901 140.012 96.8498 148.468 85.6246 145.662C74.3995 142.857 59.8321 110.031 54.4868 92.9824L70.7341 77.2748L91.0654 116.145Z" fill="#00A886"/>
<path d="M156.293 73.672C156.293 73.672 153.765 84.3039 152.22 86.2783L133.463 84.5206L132.35 72.542L156.293 73.672Z" fill="#00A886"/>
<path d="M178.668 134.733C178.669 127.987 169.747 119.418 169.747 119.418L172.245 140.749C175.986 139.057 178.668 136.775 178.668 134.733Z" fill="#FFFAE2"/>
<path d="M151.727 146.037C151.727 146.037 163.632 144.646 172.245 140.749M172.245 140.749C175.986 139.057 178.668 136.775 178.668 134.733C178.669 127.987 169.747 119.418 169.747 119.418L172.245 140.749Z" stroke="#232540" stroke-width="2" stroke-linecap="round" stroke-linejoin="round"/>
<path d="M105.516 131.998C105.516 131.998 112.296 105.38 119.968 100.093" stroke="#232540" stroke-width="2" stroke-linecap="round" stroke-linejoin="round"/>
<path d="M138.693 53.5538C126.067 50.8762 123.909 50.9733 137.81 57.7369L138.693 53.5538Z" fill="#FFFAE2"/>
<path d="M137.12 52.6061C127.077 52.3583 124.71 51.7944 135.492 57.1611" stroke="#232540" stroke-width="2" stroke-linecap="round" stroke-linejoin="round"/>
<path d="M135.48 57.2985L134.176 60.9464C135.135 62.1761 137.68 63.8795 140.195 60.856" stroke="#232540" stroke-width="2" stroke-linecap="round" stroke-linejoin="round"/>
<ellipse rx="0.956743" ry="2.27173" transform="matrix(-0.911399 -0.413966 -0.397763 0.916426 134.728 49.2657)" fill="#232540"/>
<ellipse rx="0.956743" ry="2.27173" transform="matrix(-0.911399 -0.413966 -0.397763 0.916426 142.792 52.4721)" fill="#232540"/>
</svg>
