<svg width="245" height="245" viewBox="0 0 245 245" fill="none" xmlns="http://www.w3.org/2000/svg">
<path d="M194.682 241V107.166H187.035V241H194.682Z" stroke="#E1E1E1" stroke-width="3"/>
<path d="M179.812 228.724V106.802H187.432V228.724H179.812Z" fill="white" stroke="#E1E1E1" stroke-width="3"/>
<path d="M30.1323 228.724V106.802H36.6638V228.724H30.1323Z" fill="white" stroke="#E1E1E1" stroke-width="3"/>
<rect x="26.7339" y="143.137" width="166.275" height="8.43013" fill="white" stroke="#E1E1E1" stroke-width="3"/>
<rect x="196.183" y="143.08" width="17.5531" height="8.47149" fill="white" stroke="#E1E1E1" stroke-width="3"/>
<rect x="200.484" y="143.08" width="13.7293" height="8.47149" fill="white" stroke="#E1E1E1" stroke-width="3"/>
<path d="M45.5532 110.512V237.654H35.9937V173.77" stroke="#E1E1E1" stroke-width="3"/>
<path d="M206.154 95.2164H25V104.776H206.154V95.2164Z" fill="white" stroke="#E1E1E1" stroke-width="3"/>
<path d="M206.632 106.21H25V115.292H206.632V106.21Z" fill="white" stroke="#E1E1E1" stroke-width="3"/>
<path d="M206.632 84.7009H25V93.7825H206.632V84.7009Z" fill="white" stroke="#E1E1E1" stroke-width="3"/>
<path d="M215.714 95.2164H198.984V104.776H215.714V95.2164Z" fill="white" stroke="#E1E1E1" stroke-width="3"/>
<path d="M215.714 84.7009H198.984V93.7825H215.714V84.7009Z" fill="white" stroke="#E1E1E1" stroke-width="3"/>
<path d="M215.714 106.21H198.984V115.292H215.714V106.21Z" fill="white" stroke="#E1E1E1" stroke-width="3"/>
<path d="M188.268 185.574L184.716 177.563L172.004 182.592L185.202 207.444L220.352 179.606C214.534 171.153 194.339 180.718 188.268 185.574Z" fill="black"/>
<path d="M191.208 177.832C178.226 150.061 163.994 118.232 149.025 118.232L135.17 123.225L142.766 148.713L171.614 189.807L191.208 177.832Z" fill="black"/>
<path d="M142.962 75.1335C143.939 76.6957 141.283 77.3076 139.833 77.4182L140.661 74.0901C141.021 73.787 141.985 73.5712 142.962 75.1335Z" fill="white" stroke="black" stroke-width="3"/>
<path d="M143.44 71.3096C144.417 72.8719 141.761 73.4837 140.311 73.5944L141.139 70.2663C141.499 69.9631 142.463 69.7474 143.44 71.3096Z" fill="white" stroke="black" stroke-width="3"/>
<path d="M71.0976 49.4963C46.8258 49.4963 47.6269 93.3937 49.7036 113.677L100.154 114.575C100.154 111.47 110.415 106.171 110.415 90.7456C110.415 67.3411 93.1117 49.4963 71.0976 49.4963Z" fill="#00A886"/>
<path d="M126.499 76.7975C117.692 73.5041 105.732 68.532 96.4581 58.89L90.0054 84.7009H135.413C133.023 78.7261 133.057 79.2502 126.499 76.7975Z" fill="#00A886"/>
<path d="M131.643 56.9996L145.794 56.9996L138.939 88.1958L123.632 88.4431L131.643 56.9996Z" fill="#2E5CDF"/>
<path d="M99.8013 67.3411C104.428 73.3283 110.143 97.5365 103.067 104.353" stroke="black" stroke-width="2" stroke-linecap="round" stroke-linejoin="round"/>
<path d="M115.731 100.73C114.678 101.801 113.498 101.727 111.231 102.992L113.36 98.9114V88.8645L118.528 85.9616C120.21 83.5799 125.073 75.8252 128.056 74.5747C131.039 73.3243 131.054 75.0957 130.688 76.1378C128.641 78.1472 124.897 82.3895 126.301 83.2827C128.056 84.3992 144.288 74.3516 144.946 76.1378C145.36 77.2628 141.632 81.3223 138.493 84.4147C140.308 82.8583 142.194 81.7029 142.314 83.2827C142.41 84.5566 141.366 86.2024 140.103 87.6743C141.544 86.4798 142.48 86.1856 141.217 88.8645C138.585 94.4463 117.047 99.3899 115.731 100.73Z" fill="#FFFAE2"/>
<path d="M111.231 102.992C113.498 101.727 114.678 101.801 115.731 100.73C117.047 99.3899 138.585 94.4463 141.217 88.8645C143.323 84.399 139.316 88.1947 137.049 90.6507C138.877 89.1622 142.489 85.6047 142.314 83.2827C142.138 80.9606 138.146 84.5479 136.172 86.6318C139.316 83.7292 145.472 77.5667 144.946 76.1378C144.288 74.3516 128.056 84.3992 126.301 83.2827C124.897 82.3895 128.641 78.1472 130.688 76.1378C131.054 75.0957 131.039 73.3243 128.056 74.5747C125.073 75.8252 120.21 83.5799 118.528 85.9616L113.36 88.8645V98.9114L111.231 102.992Z" stroke="black" stroke-width="2" stroke-linecap="round" stroke-linejoin="round"/>
<path d="M94.0451 141.462C59.5198 141.462 53.7578 122.412 55.1777 111.946H100.967C142.99 111.946 157.208 128.02 153.959 145.344C148.279 145.972 141.356 141.462 94.0451 141.462Z" fill="black"/>
<path d="M92.7635 141.28C53.5922 144.011 53.8148 127.625 55.5563 111.946H86.5317C83.9321 115.342 102.082 129.324 99.8856 140.74C99.5068 140.784 99.3072 140.814 99.2522 140.831C98.5833 141.044 119.355 139.454 99.2522 140.831C97.4376 140.956 95.29 141.104 92.7635 141.28Z" fill="black"/>
<path d="M137.828 218.092L140.238 208.547L126.813 205.365L120.961 229.051H162.956C163.782 220.283 146.548 218.092 137.828 218.092Z" fill="black"/>
<path d="M123.254 210.713L123.987 135.378C97.4713 121.942 95.2169 113.655 119.088 114.15C142.96 114.646 159.366 123.947 156.872 135.206L143.766 210.713H123.254Z" fill="black"/>
<path d="M147.21 114.611C131.682 107.026 92.4925 104.906 69.3237 111.919L115.168 128.311L171.611 143.97C161.752 126.11 163.157 122.401 147.21 114.611Z" fill="black"/>
<path d="M78.6869 117.879C49.1032 126.6 36.6385 104.625 38.0245 90.4734C40.746 62.6858 61.5654 44.7896 76.1249 51.2846L56.8026 76.322L78.6869 95.8979L116.97 85.0595L119.419 101.069C119.419 101.069 96.0144 112.771 78.6869 117.879Z" fill="#00A886"/>
<path d="M85.9867 95.9105C85.9867 95.9105 79.474 98.9042 71.5629 98.9042C66.3921 98.9042 63.6706 92.3727 65.5757 86.1191" stroke="black" stroke-width="2" stroke-linecap="round" stroke-linejoin="round"/>
<path d="M83.1929 49.0284L66.8509 47.5257C64.963 47.3521 63.334 48.8381 63.334 50.734C63.334 52.1844 64.3031 53.456 65.7016 53.8406L74.2198 56.1831L82.189 57.37C84.7286 57.7482 87.0107 55.7808 87.0107 53.2133C87.0107 51.0414 85.3557 49.2273 83.1929 49.0284Z" fill="#00A886"/>
<path d="M63.935 31.6235C66.5571 2.67111 90.4323 10.7768 94.0219 22.0037C96.6668 41.7393 89.7126 46.4367 82.4592 45.869C82.4592 45.869 82.8493 54.4714 82.5765 56.3624C76.4519 57.3014 67.1433 51.8286 67.1433 51.8286C67.1433 51.8286 66.0546 45.2971 66.3756 39.2569C64.1427 38.9813 61.9727 35.4998 63.935 31.6235Z" fill="#FFFAE2"/>
<path d="M64.2888 30.873C61.1562 -2.32876 96.8075 6.92463 94.9024 21.8926C94.9024 21.8926 71.3174 24.0698 84.0166 21.3482C96.7157 18.6265 73.1307 20.8037 73.1307 20.8037L71.3174 32.4504C70.276 28.1516 65.8136 28.4356 64.2888 30.873Z" fill="black"/>
<path d="M74.0802 43.2286C76.4403 44.5172 79.4031 45.6021 82.337 45.8317M94.9024 21.8926C96.8075 6.92463 61.1562 -2.32876 64.2888 30.873M94.9024 21.8926C97.3516 40.6703 89.5904 46.3994 82.337 45.8317M94.9024 21.8926C94.9024 21.8926 71.3174 24.0698 84.0166 21.3482C96.7157 18.6265 73.1307 20.8037 73.1307 20.8037L71.3174 32.4504C70.276 28.1516 65.8136 28.4356 64.2888 30.873M64.2888 30.873C61.8394 36.8603 64.1428 38.9813 66.3758 39.2569C66.3758 39.2569 66.9367 47.1669 66.0549 51.2843M82.337 45.8317C82.6519 47.9895 82.5955 51.0286 82.1541 54.2388" stroke="black" stroke-width="2" stroke-linecap="round" stroke-linejoin="round"/>
<path d="M65.2619 49.0914L64.5449 55.7831L73.3353 59.7265L83.6641 62.2359V50.7644C76.5211 53.2152 73.0826 54.12 65.2619 49.0914Z" fill="#00A886"/>
<ellipse rx="1.19495" ry="1.67293" transform="matrix(-0.96046 0.278419 0.278419 0.96046 83.0061 57.9616)" stroke="black" stroke-width="3"/>
<ellipse rx="1.19495" ry="1.67293" transform="matrix(-0.979418 0.201844 0.201844 0.979418 85.0238 63.6376)" stroke="black" stroke-width="3"/>
<path d="M87.0791 31.8789C99.0489 35.4058 100.848 36.4714 85.9664 35.7704L87.0791 31.8789Z" fill="white"/>
<path d="M88.8442 31.8065C97.5258 36.1816 99.7966 36.7908 88.2018 36.3483" stroke="black" stroke-width="2" stroke-linecap="round" stroke-linejoin="round"/>
<path d="M88.1504 36.468L87.6361 40.1053C86.2696 40.6936 83.3373 40.953 82.54 37.2842" stroke="black" stroke-width="3" stroke-linecap="round" stroke-linejoin="round"/>
<ellipse cx="92.3752" cy="30.1114" rx="0.923303" ry="2.15437" transform="rotate(4.19091 92.3752 30.1114)" fill="black"/>
<ellipse cx="84.0637" cy="29.107" rx="0.923302" ry="2.15437" transform="rotate(4.19091 84.0637 29.107)" fill="black"/>
</svg>
