<svg width="173" height="196" viewBox="0 0 173 196" fill="none" xmlns="http://www.w3.org/2000/svg">
<path d="M49.7737 37.4734C34.6143 3.25955 68.7465 1.18054 74.0456 15.4756C84.4041 33.5561 80.0166 41.3924 72.9013 43.7881C74.6578 50.6768 79.3015 66.246 74.7371 71.7857C69.0317 78.7103 65.2386 82.0127 61.4721 72.9092C58.4589 65.6264 55.9864 50.5291 55.1268 43.8908C52.8962 44.5305 48.7028 44.1424 49.7737 37.4734Z" fill="#FFFAE2"/>
<path d="M64.0238 44.6158C66.7778 44.9077 70.0233 44.7571 72.9013 43.7881M74.0456 15.4756C68.7465 1.18054 34.6143 3.25955 49.7737 37.4734M74.0456 15.4756C84.4041 33.5561 80.0166 41.3924 72.9013 43.7881M74.0456 15.4756C74.0456 15.4756 54.5724 26.5979 64.7676 20.0334C74.9628 13.4689 54.0624 23.862 54.0624 23.862L56.2033 35.347C53.6215 33.8628 50.8507 35.1647 49.7737 37.4734M49.7737 37.4734C48.7028 44.1424 52.8962 44.5305 55.1268 43.8908C55.9864 50.5291 58.4589 65.6264 61.4721 72.9092C65.2386 82.0127 69.0317 78.7103 74.7371 71.7857C79.3015 66.246 74.6578 50.6768 72.9013 43.7881" stroke="#232540" stroke-width="2" stroke-linecap="round" stroke-linejoin="round"/>
<path d="M49.6013 37.7174C34.0787 5.81143 67.0865 -1.47885 74.4022 15.4758L54.2404 23.6796L56.5599 36.0768C52.2778 33.7067 49.7477 36.8056 49.6013 37.7174Z" fill="#232540"/>
<path d="M28.4385 195.751L37.3556 156.885H81.0494L69.8139 195.751H28.4385Z" fill="#232540"/>
<path d="M107.592 195.751L99.8949 154.041H65.8828V173.66L73.4664 188.641L80.9197 195.751H107.592Z" fill="#232540"/>
<path d="M72.5176 182.953L75.1244 169.208" stroke="#00A886" stroke-width="2" stroke-linecap="round" stroke-linejoin="round"/>
<path d="M151.246 68.2646C154.233 64.3436 160.814 56.1588 162.419 51.3671C162.419 51.3671 167.467 40.3045 166.282 38.8232C165.12 37.3706 162.185 44.3868 159.982 47.4102C162.745 43.5928 165.398 33.5171 164.182 32.9859C162.114 32.0817 157.521 42.8295 155.356 46.5633C157.544 42.6945 162.786 31.5485 160.815 28.9245C159.932 27.7488 154.003 38.7498 151.995 43.8575C153.19 40.7025 154.99 32.807 154.99 31.1733C154.99 25.8315 147.857 39.9846 146.006 45.8627L139.814 65.8049L151.246 68.2646Z" fill="#FFFAE2"/>
<path d="M151.246 68.2646C154.233 64.3436 160.814 56.1588 162.419 51.3671C162.419 51.3671 167.467 40.3045 166.282 38.8232C165.097 37.3419 162.068 44.6673 159.852 47.5846C162.661 43.9102 165.417 33.5255 164.182 32.9859C162.114 32.0817 157.521 42.8295 155.356 46.5633C157.544 42.6945 162.786 31.5485 160.815 28.9245C159.919 27.7315 153.827 39.0766 151.909 44.0794C153.101 41.0907 154.99 32.8468 154.99 31.1733C154.99 25.8315 147.857 39.9846 146.006 45.8627L139.814 65.8049L151.246 68.2646Z" stroke="#232540" stroke-width="2" stroke-linecap="round" stroke-linejoin="round"/>
<path d="M140.276 50.6887C139.975 54.1108 137.824 60.7191 136.35 63.6018L142.734 60.6914L149.117 57.781C151.188 55.6119 147.251 51.9366 145.598 50.1376C144.518 42.5944 144.593 38.9865 142.804 38.7764C140.08 38.4564 140.711 45.7524 140.276 50.6887Z" fill="#FFFAE2"/>
<path d="M136.351 63.6016C137.825 60.7189 139.975 54.1106 140.277 50.6885C140.712 45.7522 140.08 38.4562 142.805 38.7762C144.593 38.9863 144.518 42.5943 145.598 50.1374C147.646 50.1468 149.287 55.1689 147.216 57.3379" stroke="#232540" stroke-width="2" stroke-linecap="round" stroke-linejoin="round"/>
<path d="M117.935 91.1445C104.419 52.567 81.3765 49.1574 71.545 52.2748H57.7999C30.5961 55.7818 -3.19388 104.296 0.242389 120.662C2.9914 133.755 25.413 138.137 35.1491 138.721L32.8869 160.701L111.348 164.792L104.476 110.433C106.099 115.012 112.15 123.468 123.375 120.662C134.601 117.856 149.168 85.0305 154.513 67.9824L138.266 52.2748L117.935 91.1445Z" fill="#00A886"/>
<path d="M52.7063 48.672C52.7063 48.672 55.2349 59.3039 56.7796 61.2783L75.5369 59.5206L76.6496 47.5419L52.7063 48.672Z" fill="#00A886"/>
<path d="M30.332 109.733C30.332 102.987 39.2531 94.4184 39.2531 94.4184L36.7552 115.749C33.0146 114.057 30.332 111.775 30.332 109.733Z" fill="#FFFAE2"/>
<path d="M57.2736 121.037C57.2736 121.037 45.3689 119.646 36.7552 115.749M36.7552 115.749C33.0146 114.057 30.332 111.775 30.332 109.733C30.332 102.987 39.2531 94.4184 39.2531 94.4184L36.7552 115.749Z" stroke="#232540" stroke-width="2" stroke-linecap="round" stroke-linejoin="round"/>
<path d="M103.484 106.998C103.484 106.998 96.7044 80.38 89.0322 75.0928" stroke="#232540" stroke-width="2" stroke-linecap="round" stroke-linejoin="round"/>
<path d="M70.3066 28.5538C82.9327 25.8762 85.0909 25.9733 71.1892 32.7369L70.3066 28.5538Z" fill="#FFFAE2"/>
<path d="M71.8809 27.6061C81.9238 27.3583 84.29 26.7945 73.5088 32.1612" stroke="#232540" stroke-width="2" stroke-linecap="round" stroke-linejoin="round"/>
<path d="M73.5198 32.2985L74.8236 35.9464C73.8651 37.176 71.3195 38.8794 68.8051 35.8559" stroke="#232540" stroke-width="2" stroke-linecap="round" stroke-linejoin="round"/>
<ellipse rx="0.956743" ry="2.27173" transform="matrix(0.911399 -0.413966 0.397763 0.916426 74.2717 24.2657)" fill="#232540"/>
<ellipse rx="0.956743" ry="2.27173" transform="matrix(0.911399 -0.413966 0.397763 0.916426 66.2082 27.4721)" fill="#232540"/>
</svg>
